<?xml version="1.0" encoding="iso-8859-1"?>
<!-- Generator: Adobe Illustrator 19.0.0, SVG Export Plug-In . SVG Version: 6.00 Build 0)  -->
<svg version="1.1" id="Layer_1" xmlns="http://www.w3.org/2000/svg" xmlns:xlink="http://www.w3.org/1999/xlink" x="0px" y="0px"
	 viewBox="0 0 512 512" style="enable-background:new 0 0 512 512;" xml:space="preserve">
<g transform="translate(1 1)">
	<g>
		<path style="fill:#E2E3E5;" d="M178.2,83.875c0,35.84-28.16,64-64,64s-64-28.16-64-64s28.16-64,64-64S178.2,48.035,178.2,83.875"
			/>
		<path style="fill:#E2E3E5;" d="M511,416.675c0,35.84-28.16,64-64,64s-64-28.16-64-64s28.16-64,64-64S511,380.835,511,416.675"/>
	</g>
	<g>
		<path style="fill:#CCCCCC;" d="M139.8,83.875c0,35.84-28.16,64-64,64s-64-28.16-64-64s28.16-64,64-64S139.8,48.035,139.8,83.875"
			/>
		<path style="fill:#CCCCCC;" d="M472.6,416.675c0,35.84-28.16,64-64,64s-64-28.16-64-64s28.16-64,64-64
			S472.6,380.835,472.6,416.675"/>
	</g>
	<g>
		<path style="fill:#E2E3E5;" d="M434.2,416.675c0,35.84-20.48,64-44.8,64c-24.32,0-44.8-28.16-44.8-64s20.48-64,44.8-64
			C413.72,352.675,434.2,380.835,434.2,416.675"/>
		<path style="fill:#E2E3E5;" d="M101.4,83.875c0,35.84-20.48,64-44.8,64s-44.8-28.16-44.8-64s20.48-64,44.8-64
			S101.4,48.035,101.4,83.875"/>
		
			<rect x="-84.013" y="250.729" transform="matrix(-0.7071 0.7071 -0.7071 -0.7071 599.0253 278.9336)" style="fill:#E2E3E5;" width="651.514" height="25.6"/>
	</g>
	<path style="fill:#B6B6B6;" d="M11.8,493.475c-3.84,0-6.4-1.28-8.96-3.84c-5.12-5.12-5.12-12.8,0-17.92l460.8-460.8
		c5.12-5.12,12.8-5.12,17.92,0c5.12,5.12,5.12,12.8,0,17.92l-460.8,460.8C18.2,492.195,15.64,493.475,11.8,493.475z"/>
	<path id="SVGCleanerId_0" style="fill:#B6B6B6;" d="M75.8,160.675c-42.24,0-76.8-34.56-76.8-76.8s34.56-76.8,76.8-76.8
		s76.8,34.56,76.8,76.8S118.04,160.675,75.8,160.675z M75.8,32.675c-28.16,0-51.2,23.04-51.2,51.2s23.04,51.2,51.2,51.2
		s51.2-23.04,51.2-51.2S103.96,32.675,75.8,32.675z"/>
	<path id="SVGCleanerId_1" style="fill:#B6B6B6;" d="M408.6,493.475c-42.24,0-76.8-34.56-76.8-76.8s34.56-76.8,76.8-76.8
		s76.8,34.56,76.8,76.8S450.84,493.475,408.6,493.475z M408.6,365.475c-28.16,0-51.2,23.04-51.2,51.2c0,28.16,23.04,51.2,51.2,51.2
		s51.2-23.04,51.2-51.2C459.8,388.515,436.76,365.475,408.6,365.475z"/>
	<g>
		<path id="SVGCleanerId_0_1_" style="fill:#B6B6B6;" d="M75.8,160.675c-42.24,0-76.8-34.56-76.8-76.8s34.56-76.8,76.8-76.8
			s76.8,34.56,76.8,76.8S118.04,160.675,75.8,160.675z M75.8,32.675c-28.16,0-51.2,23.04-51.2,51.2s23.04,51.2,51.2,51.2
			s51.2-23.04,51.2-51.2S103.96,32.675,75.8,32.675z"/>
	</g>
	<g>
		<path id="SVGCleanerId_1_1_" style="fill:#B6B6B6;" d="M408.6,493.475c-42.24,0-76.8-34.56-76.8-76.8s34.56-76.8,76.8-76.8
			s76.8,34.56,76.8,76.8S450.84,493.475,408.6,493.475z M408.6,365.475c-28.16,0-51.2,23.04-51.2,51.2c0,28.16,23.04,51.2,51.2,51.2
			s51.2-23.04,51.2-51.2C459.8,388.515,436.76,365.475,408.6,365.475z"/>
	</g>
</g>
<g>
</g>
<g>
</g>
<g>
</g>
<g>
</g>
<g>
</g>
<g>
</g>
<g>
</g>
<g>
</g>
<g>
</g>
<g>
</g>
<g>
</g>
<g>
</g>
<g>
</g>
<g>
</g>
<g>
</g>
</svg>
